# Blender v2.72 (sub 0) OBJ File: 'city.blend'
# www.blender.org
mtllib buildings.mtl
o Cube
v -79.648674 -0.654809 79.648674
v -79.648674 -0.654809 -79.648674
v 79.648682 -0.654809 -79.648651
v 79.648643 -0.654809 79.648705
v -79.648712 0.654809 79.648636
v -79.648628 0.654809 -79.648720
v 79.648705 0.654809 -79.648643
v 79.648666 0.654809 79.648674
vt 0.675663 80.324341
vt 80.324341 80.324326
vt 80.324326 0.675648
vt 0.675644 0.675682
vt 80.324333 0.675663
vt 80.324356 80.324326
vt 0.675663 0.172596
vt 0.675682 0.827404
vt 80.324356 0.827404
vt 0.324322 0.827404
vt -79.324341 0.827404
vt -79.324356 0.172596
vt 80.324326 0.172596
vt 80.324333 0.827404
vt 0.675663 0.675663
vt 0.675686 80.324356
vt 0.324326 0.172596
vt 0.675644 0.827404
vn 0.000000 -1.000000 0.000000
vn 0.000000 1.000000 0.000000
vn -1.000000 -0.000000 -0.000000
vn 0.000000 -0.000000 -1.000000
vn 1.000000 -0.000000 0.000000
vn -0.000000 0.000000 1.000000
usemtl Material
s off
f 2/1/1 3/2/1 4/3/1
f 5/4/2 8/5/2 7/6/2
f 1/7/3 5/8/3 6/9/3
f 2/7/4 6/8/4 7/9/4
f 7/10/5 8/11/5 4/12/5
f 1/7/6 4/13/6 8/14/6
f 1/15/1 2/1/1 4/3/1
f 6/16/2 5/4/2 7/6/2
f 2/13/3 1/7/3 6/9/3
f 3/13/4 2/7/4 7/9/4
f 3/17/5 7/10/5 4/12/5
f 5/18/6 1/7/6 8/14/6
