# Blender v2.72 (sub 0) OBJ File: 'city.blend'
# www.blender.org
mtllib ground.mtl
o Cube.001
v -60.248344 -1.178621 -21.528265
v -60.248344 -1.178621 -42.914146
v -38.862465 -1.178621 -42.914146
v -38.862465 -1.178621 -21.528265
v -60.248344 57.491707 -21.528265
v -60.248344 57.491707 -42.914146
v -38.862465 57.491707 -42.914146
v -38.862465 57.491707 -21.528265
v 32.750137 -1.178621 -21.528265
v 32.750137 -1.178621 -42.914146
v 54.136017 -1.178621 -42.914146
v 54.136017 -1.178621 -21.528265
v 32.750137 57.491707 -21.528265
v 32.750137 57.491707 -42.914146
v 54.136017 57.491707 -42.914146
v 54.136017 57.491707 -21.528265
v 32.750137 -1.178621 46.599823
v 32.750137 -1.178621 25.213943
v 54.136017 -1.178621 25.213943
v 54.136017 -1.178621 46.599823
v 32.750137 57.491707 46.599823
v 32.750137 57.491707 25.213943
v 54.136017 57.491707 25.213943
v 54.136017 57.491707 46.599823
vt 2.631857 -7.147855
vt 2.631857 -13.190889
vt 0.429114 -13.190889
vt 2.654865 -7.147855
vt 2.654865 -13.190889
vt 0.452124 -13.190889
vt -1.630882 -7.147855
vt -1.630882 -13.190889
vt 0.571860 -13.190889
vt -1.813873 -7.147855
vt -1.813873 -13.190889
vt 0.388869 -13.190889
vt 0.452124 -4.941347
vt 2.654865 -4.941347
vt 2.654865 -7.144090
vt 0.388869 -4.941347
vt -1.813873 -4.941347
vt -1.813873 -7.144090
vt 2.757710 -7.147855
vt 2.757710 -13.190889
vt 0.554967 -13.190889
vt -1.711029 -7.147855
vt -1.711029 -13.190889
vt 0.491713 -13.190889
vt 0.554967 -4.941347
vt 2.757710 -4.941347
vt 2.757710 -7.144090
vt 0.491713 -4.941347
vt -1.711029 -4.941347
vt -1.711029 -7.144090
vt 2.618664 -7.147855
vt 2.618664 -13.190889
vt 0.415921 -13.190889
vt -1.644075 -7.147855
vt -1.644075 -13.190889
vt 0.558667 -13.190889
vt 0.554967 -4.954540
vt 2.757710 -4.954540
vt 2.757710 -7.157283
vt 0.491713 -4.954540
vt -1.711029 -4.954540
vt -1.711029 -7.157283
vt 0.429114 -7.147855
vt 0.452124 -7.147855
vt 0.571860 -7.147855
vt 0.388869 -7.147855
vt 0.452124 -7.144090
vt 0.388869 -7.144090
vt 0.554967 -7.147855
vt 0.491713 -7.147855
vt 0.554967 -7.144090
vt 0.491713 -7.144090
vt 0.415921 -7.147855
vt 0.558667 -7.147855
vt 0.554967 -7.157283
vt 0.491713 -7.157283
vn -1.000000 0.000000 0.000000
vn 0.000000 0.000000 -1.000000
vn 1.000000 0.000000 0.000000
vn 0.000000 0.000000 1.000000
vn 0.000000 -1.000000 0.000000
vn 0.000000 1.000000 0.000000
usemtl Material.001
s off
f 6/1/1 2/2/1 1/3/1
f 7/4/2 3/5/2 2/6/2
f 8/7/3 4/8/3 3/9/3
f 5/10/4 1/11/4 4/12/4
f 2/13/5 3/14/5 4/15/5
f 7/16/6 6/17/6 5/18/6
f 14/1/1 10/2/1 9/3/1
f 15/19/2 11/20/2 10/21/2
f 16/7/3 12/8/3 11/9/3
f 13/22/4 9/23/4 12/24/4
f 10/25/5 11/26/5 12/27/5
f 15/28/6 14/29/6 13/30/6
f 22/31/1 18/32/1 17/33/1
f 23/19/2 19/20/2 18/21/2
f 24/34/3 20/35/3 19/36/3
f 21/22/4 17/23/4 20/24/4
f 18/37/5 19/38/5 20/39/5
f 23/40/6 22/41/6 21/42/6
f 5/43/1 6/1/1 1/3/1
f 6/44/2 7/4/2 2/6/2
f 7/45/3 8/7/3 3/9/3
f 8/46/4 5/10/4 4/12/4
f 1/47/5 2/13/5 4/15/5
f 8/48/6 7/16/6 5/18/6
f 13/43/1 14/1/1 9/3/1
f 14/49/2 15/19/2 10/21/2
f 15/45/3 16/7/3 11/9/3
f 16/50/4 13/22/4 12/24/4
f 9/51/5 10/25/5 12/27/5
f 16/52/6 15/28/6 13/30/6
f 21/53/1 22/31/1 17/33/1
f 22/49/2 23/19/2 18/21/2
f 23/54/3 24/34/3 19/36/3
f 24/50/4 21/22/4 20/24/4
f 17/55/5 18/37/5 20/39/5
f 24/56/6 23/40/6 21/42/6
