# Blender v2.72 (sub 0) OBJ File: ''
# www.blender.org
mtllib room.mtl
o Cube
v 6.300000 -0.196423 -6.300000
v 6.300000 -0.196423 6.300000
v -6.300001 -0.196423 6.299999
v -6.299997 -0.196423 -6.300003
v 6.300003 0.196422 -6.299997
v 6.299996 0.196422 6.300004
v -6.300003 0.196422 6.299998
v -6.299999 0.196422 -6.300000
v 6.300000 -0.196423 -5.793306
v 6.300000 -0.196423 5.793306
v -6.300000 -0.196423 5.793301
v -6.299998 -0.196423 -5.793313
v 6.300001 -0.156691 -5.793297
v 6.299998 -0.156691 5.793317
v -6.300002 -0.156691 5.793301
v -6.300000 -0.156691 -5.793309
v 5.880003 -0.196423 -6.300001
v -5.879993 -0.196423 -6.300002
v 5.879999 -0.196423 6.300000
v -5.880002 -0.196423 6.299999
v 5.880007 -0.156691 -6.299998
v -5.879995 -0.156691 -6.299999
v 5.879991 -0.156691 6.300002
v -5.880008 -0.156691 6.300000
v 5.880002 -0.196423 -5.793309
v -5.879996 -0.196423 -5.793311
v 5.880000 -0.196423 5.793304
v -5.879999 -0.196423 5.793303
v -5.879999 -0.156691 -5.793305
v 5.880002 -0.156691 -5.793302
v -5.880003 -0.156691 5.793306
v 5.879996 -0.156691 5.793312
v 6.300003 7.196422 -6.299997
v 6.299996 7.196422 6.300004
v -6.300003 7.196422 6.299998
v -6.299999 7.196422 -6.300000
v 6.300001 7.196422 -5.793297
v 6.299998 7.196422 5.793317
v -6.300002 7.196422 5.793301
v -6.300000 7.196422 -5.793309
v 5.880007 7.196422 -6.299998
v -5.879995 7.196422 -6.299999
v 5.879991 7.196422 6.300002
v -5.880008 7.196422 6.300000
v -5.879999 7.196422 -5.793305
v 5.880002 7.196422 -5.793302
v -5.880003 7.196422 5.793306
v 5.879996 7.196422 5.793312
vt 0.560000 0.603349
vt 0.559999 0.350000
vt 0.349999 0.350001
vt 0.650000 0.598211
vt 0.650000 4.098211
vt 0.440001 4.098211
vt 0.603347 0.401789
vt 0.603341 0.598211
vt 0.349998 0.598211
vt 0.559999 0.401789
vt 0.559996 0.598211
vt 0.396657 0.401789
vt 0.396655 0.598211
vt 0.350001 0.401789
vt 0.560003 0.650001
vt 0.560002 0.396656
vt 0.350001 0.396657
vt 0.560000 -5.396651
vt 0.350000 -5.396650
vt 0.396655 4.098211
vt 0.396649 0.598211
vt -5.396659 0.598211
vt 6.396655 0.598211
vt 6.396657 0.401789
vt 0.650000 0.350000
vt 0.440000 0.350000
vt 0.440000 0.603348
vt -5.440001 0.350000
vt -5.440001 0.603347
vt 0.439996 0.598211
vt 0.440000 0.401789
vt -5.440004 0.598211
vt 0.650000 0.401789
vt -5.439997 0.401789
vt 0.650000 0.396653
vt 0.440001 0.396654
vt 0.440001 0.650001
vt -5.439998 0.396656
vt 0.650000 -5.396653
vt 0.440000 -5.396652
vt -5.440000 -5.396651
vt 0.349999 4.098211
vt 0.603344 4.098211
vt -5.439998 0.650000
vt 0.349999 0.603349
vt 0.350000 0.650000
vt 0.650002 0.649999
vt 0.559999 4.098211
vt -5.396653 0.401789
vt 0.650000 0.603347
vt 0.650000 0.396649
vt 0.396649 4.098211
vn 0.000000 -1.000000 0.000000
vn -0.000000 0.000000 1.000000
vn 1.000000 0.000000 -0.000000
vn -0.000100 -0.000000 1.000000
vn -1.000000 -0.000000 -0.000000
vn 0.000000 0.000000 -1.000000
vn 0.000000 1.000000 0.000000
vn 0.000100 -0.000100 1.000000
vn -0.000000 -0.000100 1.000000
vn 0.000000 0.000100 -1.000000
vn 0.000100 0.000100 -1.000000
vn -0.000100 0.000100 -1.000000
usemtl Material
s off
f 28/1/1 20/2/1 3/3/1
f 13/4/2 37/5/2 46/6/2
f 10/7/3 14/8/3 6/9/3
f 20/10/4 24/11/4 7/9/4
f 12/12/5 16/13/5 8/4/5
f 18/10/6 4/14/6 8/9/6
f 18/15/1 26/16/1 12/17/1
f 28/18/1 11/19/1 12/17/1
f 16/13/5 40/20/5 36/5/5
f 16/17/7 15/19/7 31/18/7
f 5/4/3 13/21/3 9/12/3
f 9/12/3 13/21/3 14/22/3
f 7/9/5 15/8/5 11/7/5
f 15/8/5 16/23/5 12/24/5
f 2/25/1 19/26/1 27/27/1
f 27/27/1 19/26/1 20/28/1
f 22/4/3 42/5/3 45/20/3
f 32/27/7 31/29/7 24/28/7
f 6/4/8 23/30/8 19/31/8
f 19/31/9 23/30/9 24/32/9
f 5/4/6 1/33/6 17/31/6
f 21/30/10 17/31/10 18/34/10
f 9/35/1 25/36/1 17/37/1
f 17/37/1 25/36/1 26/38/1
f 10/39/1 27/40/1 25/36/1
f 27/40/1 28/41/1 26/38/1
f 23/9/5 43/42/5 48/43/5
f 21/37/7 22/44/7 29/38/7
f 30/36/7 32/40/7 14/39/7
f 29/38/7 31/41/7 32/40/7
f 39/45/7 35/3/7 44/2/7
f 36/46/7 40/17/7 45/16/7
f 48/27/7 43/26/7 34/25/7
f 33/47/7 41/37/7 46/36/7
f 22/11/6 8/9/6 36/42/6
f 15/9/6 39/42/6 47/48/6
f 15/8/5 7/9/5 35/42/5
f 29/11/2 45/48/2 40/42/2
f 13/21/3 5/4/3 33/5/3
f 31/8/3 47/43/3 44/42/3
f 32/30/6 48/6/6 38/5/6
f 23/30/2 6/4/2 34/5/2
f 30/13/5 46/20/5 41/5/5
f 24/11/2 44/48/2 35/42/2
f 21/30/6 41/6/6 33/5/6
f 14/8/3 38/43/3 34/42/3
f 11/45/1 28/1/1 3/3/1
f 30/30/2 13/4/2 46/6/2
f 2/14/3 10/7/3 6/9/3
f 3/14/2 20/10/2 7/9/2
f 4/33/5 12/12/5 8/4/5
f 22/11/11 18/10/11 8/9/11
f 4/46/1 18/15/1 12/17/1
f 26/16/1 28/18/1 12/17/1
f 8/4/5 16/13/5 36/5/5
f 29/16/7 16/17/7 31/18/7
f 1/33/3 5/4/3 9/12/3
f 10/49/3 9/12/3 14/22/3
f 3/14/5 7/9/5 11/7/5
f 11/7/5 15/8/5 12/24/5
f 10/50/1 2/25/1 27/27/1
f 28/29/1 27/27/1 20/28/1
f 29/13/3 22/4/3 45/20/3
f 23/26/7 32/27/7 24/28/7
f 2/33/2 6/4/2 19/31/2
f 20/34/2 19/31/2 24/32/2
f 21/30/12 5/4/12 17/31/12
f 22/32/10 21/30/10 18/34/10
f 1/47/1 9/35/1 17/37/1
f 18/44/1 17/37/1 26/38/1
f 9/35/1 10/39/1 25/36/1
f 25/36/1 27/40/1 26/38/1
f 32/8/5 23/9/5 48/43/5
f 30/36/7 21/37/7 29/38/7
f 13/51/7 30/36/7 14/39/7
f 30/36/7 29/38/7 32/40/7
f 47/1/7 39/45/7 44/2/7
f 42/15/7 36/46/7 45/16/7
f 38/50/7 48/27/7 34/25/7
f 37/51/7 33/47/7 46/36/7
f 42/48/6 22/11/6 36/42/6
f 31/11/6 15/9/6 47/48/6
f 39/43/5 15/8/5 35/42/5
f 16/9/2 29/11/2 40/42/2
f 37/52/3 13/21/3 33/5/3
f 24/9/3 31/8/3 44/42/3
f 14/4/6 32/30/6 38/5/6
f 43/6/2 23/30/2 34/5/2
f 21/4/5 30/13/5 41/5/5
f 7/9/2 24/11/2 35/42/2
f 5/4/6 21/30/6 33/5/6
f 6/9/3 14/8/3 34/42/3
