# Blender v2.72 (sub 0) OBJ File: 'untitled.blend'
# www.blender.org
mtllib untitled.mtl
o Cube
v 7.204345 -0.140100 -7.204345
v 7.204345 -0.140100 7.204345
v -7.204346 -0.140100 7.204343
v -7.204342 -0.140100 -7.204347
v 7.204348 0.140101 -7.204341
v 7.204340 0.140101 7.204349
v -7.204347 0.140101 7.204342
v -7.204344 0.140101 -7.204345
v 8.226610 -0.700533 -4.113305
v 8.226610 -0.700533 -0.000000
v 8.226610 -0.700533 4.113305
v -8.226610 -0.700533 4.113303
v -8.226609 -0.700533 -0.000002
v -8.226607 -0.700533 -4.113307
v 8.226611 -0.380572 -4.113301
v 8.226609 -0.380572 0.000004
v 8.226607 -0.380572 4.113309
v -8.226611 -0.380572 4.113303
v -8.226610 -0.380572 -0.000001
v -8.226610 -0.380572 -4.113306
vt 0.613305 0.556653
vt 0.613305 -1.500000
vt -7.613305 -1.499999
vt 0.613305 -1.556653
vt -7.613305 -1.556651
vt -7.613305 0.500001
vt -7.613305 0.556653
vt 0.613305 0.500000
vt 0.102172 -1.102172
vt -7.102173 -1.102171
vt -7.613305 0.443349
vt 0.443347 0.149734
vt 0.443345 0.309714
vt -1.102175 0.570050
vt 0.102172 0.429950
vt 0.102170 0.570050
vt -7.102174 0.570050
vt 0.556654 0.149734
vt 0.556653 0.309714
vt 2.102172 0.570050
vt -7.102171 0.429950
vt 0.613305 -1.443347
vt -7.613304 -1.443346
vt -7.102171 0.102174
vt -1.443349 0.309714
vt -1.443347 0.149734
vt -1.500002 0.309714
vt 0.500000 0.149734
vt 0.499998 0.309714
vt -1.556655 0.309714
vt 0.897829 0.570050
vt 2.443349 0.309714
vt 2.443349 0.149734
vt 2.500001 0.309714
vt 2.500001 0.149734
vt 2.556653 0.309714
vt 2.556654 0.149734
vt 0.613305 0.443347
vt -1.102172 0.429950
vt 2.102174 0.429950
vt 0.102172 0.102172
vt -1.500000 0.149734
vt -1.556653 0.149734
vt 0.897829 0.429950
vn 0.000000 -1.000000 0.000000
vn 0.000000 1.000000 0.000000
vn -0.000000 -0.984000 0.178400
vn 0.000000 0.986100 -0.166100
vn 0.949400 0.000000 0.314000
vn -0.000000 -0.000000 1.000000
vn -0.949400 -0.000000 -0.314000
vn 0.000000 0.000000 -1.000000
vn 0.000000 -0.984000 -0.178400
vn -0.000000 0.986100 0.166100
vn 0.949400 -0.000000 -0.314000
vn 1.000000 0.000000 0.000000
vn -0.949400 0.000000 0.314000
vn -1.000000 -0.000000 -0.000000
usemtl Material.001
s off
f 9/1/1 10/2/1 13/3/1
f 11/4/1 12/5/1 13/6/1
f 20/7/2 19/3/2 16/2/2
f 19/6/2 18/5/2 17/4/2
f 14/7/1 9/1/1 13/3/1
f 10/8/1 11/4/1 13/6/1
f 15/1/2 20/7/2 16/2/2
f 16/8/2 19/6/2 17/4/2
usemtl Material.002
f 2/9/3 3/10/3 12/11/3
f 18/11/4 7/10/4 6/9/4
f 11/12/5 17/13/5 6/14/5
f 2/15/6 6/16/6 7/17/6
f 14/18/7 20/19/7 8/20/7
f 1/15/8 4/21/8 8/17/8
f 9/22/9 14/23/9 4/24/9
f 8/24/10 20/23/10 15/22/10
f 5/16/11 15/25/11 9/26/11
f 9/18/12 15/19/12 16/27/12
f 10/28/12 16/29/12 17/30/12
f 7/31/13 18/32/13 12/33/13
f 18/13/14 19/34/14 13/35/14
f 19/29/14 20/36/14 14/37/14
f 11/38/3 2/9/3 12/11/3
f 17/38/4 18/11/4 6/9/4
f 2/39/5 11/12/5 6/14/5
f 3/21/6 2/15/6 7/17/6
f 4/40/7 14/18/7 8/20/7
f 5/16/8 1/15/8 8/17/8
f 1/41/9 9/22/9 4/24/9
f 5/41/10 8/24/10 15/22/10
f 1/15/11 5/16/11 9/26/11
f 10/42/12 9/18/12 16/27/12
f 11/43/12 10/28/12 17/30/12
f 3/44/13 7/31/13 12/33/13
f 12/12/14 18/13/14 13/35/14
f 13/28/14 19/29/14 14/37/14