# Blender v2.72 (sub 0) OBJ File: 'untitled.blend'
# www.blender.org
mtllib untitled.mtl
o Cube
v 6.764247 -0.123608 -6.764247
v 6.764247 -0.123608 6.764247
v -6.764248 -0.123608 6.764246
v -6.764244 -0.123608 -6.764249
v 6.764250 0.123608 -6.764244
v 6.764243 0.123608 6.764251
v -6.764249 0.123608 6.764245
v -6.764246 0.123608 -6.764247
v 6.764247 -0.123608 -4.058548
v 6.764247 -0.123608 -1.352849
v 6.764247 -0.123608 1.352849
v 6.764247 -0.123608 4.058548
v -6.764247 -0.123608 4.058547
v -6.764246 -0.123608 1.352848
v -6.764246 -0.123608 -1.352851
v -6.764245 -0.123608 -4.058550
v 6.764249 0.123608 -4.058545
v 6.764247 0.123608 -1.352846
v 6.764246 0.123608 1.352853
v 6.764245 0.123608 4.058552
v -6.764249 0.123608 4.058546
v -6.764248 0.123608 1.352848
v -6.764247 0.123608 -1.352851
v -6.764247 0.123608 -4.058549
v 4.058549 -0.123608 -6.764247
v 1.352851 -0.123608 -6.764248
v -1.352848 -0.123608 -6.764248
v -4.058546 -0.123608 -6.764249
v 4.058548 -0.123608 6.764246
v 1.352849 -0.123608 6.764246
v -1.352850 -0.123608 6.764246
v -4.058549 -0.123608 6.764246
v 4.058551 0.123608 -6.764244
v 1.352852 0.123608 -6.764245
v -1.352848 0.123608 -6.764246
v -4.058547 0.123608 -6.764246
v 4.058545 0.123608 6.764249
v 1.352846 0.123608 6.764248
v -1.352853 0.123608 6.764247
v -4.058551 0.123608 6.764246
v 4.058548 -0.123608 -4.058548
v 1.352850 -0.123608 -4.058549
v -1.352849 -0.123608 -4.058549
v -4.058547 -0.123608 -4.058550
v 4.058548 -0.123608 -1.352850
v 1.352850 -0.123608 -1.352850
v -1.352849 -0.123608 -1.352851
v -4.058547 -0.123608 -1.352851
v 4.058548 -0.123608 1.352849
v 1.352849 -0.123608 1.352849
v -1.352849 -0.123608 1.352848
v -4.058548 -0.123608 1.352848
v 4.058548 -0.123608 4.058547
v 1.352849 -0.123608 4.058547
v -1.352849 -0.123608 4.058547
v -4.058548 -0.123608 4.058547
v -4.058548 0.123608 -4.058548
v -1.352849 0.123608 -4.058547
v 1.352851 0.123608 -4.058547
v 4.058550 0.123608 -4.058546
v -4.058548 0.123608 -1.352850
v -1.352849 0.123608 -1.352849
v 1.352849 0.123608 -1.352848
v 4.058548 0.123608 -1.352847
v -4.058549 0.123608 1.352849
v -1.352850 0.123608 1.352850
v 1.352849 0.123608 1.352851
v 4.058547 0.123608 1.352852
v -4.058550 0.123608 4.058547
v -1.352851 0.123608 4.058548
v 1.352847 0.123608 4.058549
v 4.058546 0.123608 4.058551
v 1.352849 5.766496 1.352851
v 4.058547 5.766496 1.352852
v 1.352847 5.766496 4.058549
v 4.058546 5.766496 4.058551
v -4.058548 6.105521 -4.058548
v -1.352849 6.105521 -4.058547
v -4.058548 6.105521 -1.352850
v -1.352849 6.105521 -1.352849
vt 0.470726 0.470726
vt 0.470726 -0.882123
vt -0.882124 -0.882123
vt 0.000376 0.199991
vt 0.000445 0.000100
vt 0.200336 0.000169
vt 0.470726 0.438196
vt 0.470724 0.561804
vt -0.882125 0.561804
vt 0.529274 0.561804
vt 1.882123 0.561804
vt 1.882125 0.438196
vt -0.882122 0.438196
vt 0.470727 0.882124
vt 0.470726 -0.470725
vt -0.882123 -0.470725
vt 0.470726 -0.823575
vt -0.882123 -0.823574
vt -0.882123 0.529275
vt 0.470726 -1.176424
vt -0.882123 -1.176424
vt -0.882123 0.176426
vt 0.470726 -0.529274
vt -0.882123 -0.529273
vt -0.882123 0.823576
vt 0.000100 0.999555
vt 0.000169 0.799664
vt 0.200060 0.799733
vt 0.000238 0.599773
vt 0.200129 0.599842
vt 0.000307 0.399882
vt 0.200198 0.399951
vt 0.200267 0.200060
vt 0.882123 0.438196
vt 0.882122 0.561804
vt -0.470727 0.561804
vt 0.529274 0.438196
vt -0.823577 0.561804
vt 0.176425 0.438196
vt 0.176423 0.561804
vt -1.176426 0.561804
vt 0.823575 0.438196
vt 0.823574 0.561804
vt -0.529276 0.561804
vt 0.117877 0.438196
vt 0.117878 0.561804
vt 1.470727 0.561804
vt 1.823576 0.561804
vt 1.823576 0.438196
vt 2.176425 0.561804
vt 2.176426 0.438196
vt 1.529274 0.561804
vt 1.529275 0.438196
vt 0.882123 -0.882123
vt -0.470726 -0.882123
vt -0.470726 0.470726
vt 0.529274 -0.882123
vt -0.823575 -0.882123
vt -0.823575 0.470726
vt 0.176425 -0.882123
vt -1.176425 -0.882123
vt -1.176425 0.470726
vt 0.823575 0.470726
vt 0.823575 -0.882123
vt -0.529274 -0.882123
vt 0.799940 0.200267
vt 0.800009 0.000376
vt 0.999900 0.000445
vt 0.600049 0.200198
vt 0.600118 0.000307
vt 0.400158 0.200129
vt 0.400227 0.000238
vt -0.470726 0.438196
vt -0.823575 0.438196
vt -1.176424 0.438196
vt -0.529273 0.438196
vt 0.882123 -0.470726
vt -0.470726 -0.470726
vt -0.470726 0.882124
vt 0.529274 -0.470726
vt -0.823575 -0.470726
vt -0.823575 0.882124
vt 0.176425 -0.470726
vt -1.176424 -0.470725
vt -1.176424 0.882124
vt 0.823576 -0.470725
vt -0.529274 -0.470725
vt -0.529273 0.882124
vt 0.882123 -0.823575
vt -0.470726 -0.823575
vt -0.470726 0.529274
vt 0.529274 -0.823575
vt -0.823575 -0.823575
vt -0.823575 0.529274
vt 0.176425 -0.823575
vt -1.176424 -0.823575
vt -1.176424 0.529275
vt 0.823576 -0.823575
vt -0.529274 -0.823575
vt -0.529274 0.529275
vt 0.882123 -1.176425
vt -0.470726 -1.176425
vt -0.470726 0.176425
vt 0.529274 -1.176425
vt -0.823575 -1.176424
vt -0.823575 0.176425
vt 0.176425 0.176425
vt 0.176425 -1.176424
vt -1.176425 -1.176424
vt 0.823576 0.176425
vt 0.823575 -1.176424
vt -0.529274 -1.176424
vt 0.882123 -0.529274
vt -0.470726 -0.529274
vt -0.470726 0.823575
vt 0.529274 -0.529274
vt -0.823575 -0.529274
vt -0.823575 0.823576
vt 0.176425 -0.529274
vt -1.176425 -0.529274
vt -1.176425 0.823576
vt 0.823575 -0.529274
vt -0.529274 -0.529274
vt -0.529274 0.823576
vt 0.999555 0.999900
vt 0.799664 0.999831
vt 0.799733 0.799940
vt 0.599773 0.999762
vt 0.599842 0.799871
vt 0.399882 0.999693
vt 0.399951 0.799802
vt 0.199991 0.999624
vt 0.999624 0.800009
vt 0.799802 0.600049
vt 0.599911 0.599980
vt 0.400020 0.599911
vt -0.823575 3.552760
vt 0.529274 3.552760
vt 0.999693 0.600118
vt 0.799871 0.400158
vt 0.599980 0.400089
vt 0.400089 0.400020
vt 0.999831 0.200336
vt -0.529275 3.383248
vt 0.823575 3.383248
vt 0.529274 0.823574
vt 1.823574 3.383248
vt 0.470725 3.383248
vt 1.529273 3.383248
vt 0.176424 3.383248
vt -0.823576 3.383248
vt 0.529274 3.383248
vt 1.823575 3.552760
vt 0.470726 3.552760
vt -0.529274 3.552760
vt 0.823576 3.552760
vt -0.882123 0.470727
vt -0.882122 0.882125
vt 0.470726 0.529275
vt 0.470726 0.176425
vt 0.470726 0.823576
vt 1.470727 0.438196
vt 0.882123 0.470726
vt 0.529274 0.470726
vt 0.176425 0.470726
vt -0.529274 0.470726
vt 0.882123 0.882123
vt 0.529274 0.882124
vt 0.176425 0.882124
vt 0.823576 0.882124
vt 0.882123 0.529274
vt 0.529274 0.529274
vt 0.176425 0.529274
vt 0.823576 0.529275
vt 0.882123 0.176425
vt 0.529274 0.176425
vt -1.176424 0.176425
vt -0.529274 0.176425
vt 0.882123 0.823575
vt 0.176425 0.823576
vt 0.823575 0.823576
vt 0.999762 0.400227
vt 1.529274 3.552760
vt 0.176424 3.552760
vn 0.000000 -1.000000 0.000000
vn 0.000000 1.000000 0.000000
vn 1.000000 0.000000 0.000000
vn -0.000000 -0.000000 1.000000
vn -1.000000 -0.000000 -0.000000
vn 0.000000 0.000000 -1.000000
usemtl Material
s off
f 56/1/1 32/2/1 3/3/1
f 21/4/2 7/5/2 40/6/2
f 12/7/3 20/8/3 6/9/3
f 32/7/4 40/8/4 7/9/4
f 24/10/5 8/11/5 4/12/5
f 28/7/6 4/13/6 8/9/6
f 28/14/1 44/15/1 16/16/1
f 48/17/1 15/18/1 16/19/1
f 52/20/1 14/21/1 15/22/1
f 56/23/1 13/24/1 14/25/1
f 8/26/2 24/27/2 57/28/2
f 24/27/2 23/29/2 61/30/2
f 23/29/2 22/31/2 65/32/2
f 22/31/2 21/4/2 69/33/2
f 1/34/3 5/35/3 17/36/3
f 9/37/3 17/10/3 18/38/3
f 10/39/3 18/40/3 19/41/3
f 11/42/3 19/43/3 20/44/3
f 3/45/5 7/46/5 21/47/5
f 21/8/5 22/48/5 14/49/5
f 22/43/5 23/50/5 15/51/5
f 23/40/5 24/52/5 16/53/5
f 2/54/1 29/55/1 53/56/1
f 29/57/1 30/58/1 54/59/1
f 30/60/1 31/61/1 55/62/1
f 55/63/1 31/64/1 32/65/1
f 72/66/2 37/67/2 6/68/2
f 71/69/2 38/70/2 37/67/2
f 70/71/2 39/72/2 38/70/2
f 69/33/2 40/6/2 39/72/2
f 2/34/4 6/35/4 37/36/4
f 29/37/4 37/10/4 38/38/4
f 30/39/4 38/40/4 39/41/4
f 31/42/4 39/43/4 40/44/4
f 5/35/6 1/34/6 25/73/6
f 33/10/6 25/37/6 26/74/6
f 34/40/6 26/39/6 27/75/6
f 27/42/6 28/76/6 36/44/6
f 9/77/1 41/78/1 25/79/1
f 41/80/1 42/81/1 26/82/1
f 42/83/1 43/84/1 27/85/1
f 43/86/1 44/87/1 28/88/1
f 10/89/1 45/90/1 41/91/1
f 45/92/1 46/93/1 42/94/1
f 46/95/1 47/96/1 43/97/1
f 47/98/1 48/99/1 44/100/1
f 11/101/1 49/102/1 45/103/1
f 49/104/1 50/105/1 46/106/1
f 46/107/1 50/108/1 51/109/1
f 47/110/1 51/111/1 52/112/1
f 12/113/1 53/114/1 49/115/1
f 53/116/1 54/117/1 50/118/1
f 54/119/1 55/120/1 51/121/1
f 55/122/1 56/123/1 52/124/1
f 5/125/2 33/126/2 60/127/2
f 34/128/2 59/129/2 60/127/2
f 35/130/2 58/131/2 59/129/2
f 36/132/2 57/28/2 58/131/2
f 17/133/2 60/127/2 64/134/2
f 60/127/2 59/129/2 63/135/2
f 58/131/2 62/136/2 63/135/2
f 61/38/5 79/137/5 77/138/5
f 18/139/2 64/134/2 68/140/2
f 63/135/2 67/141/2 68/140/2
f 62/136/2 66/142/2 67/141/2
f 61/30/2 65/32/2 66/142/2
f 68/140/2 72/66/2 20/143/2
f 71/44/5 75/144/5 73/145/5
f 66/142/2 70/71/2 71/69/2
f 66/142/2 65/32/2 69/33/2
f 74/146/2 73/118/2 75/117/2
f 68/48/3 74/147/3 76/148/3
f 72/52/4 76/149/4 75/150/4
f 67/38/6 73/151/6 74/152/6
f 77/100/2 79/99/2 80/98/2
f 62/48/4 80/153/4 79/154/4
f 57/44/6 77/155/6 78/156/6
f 13/157/1 56/1/1 3/3/1
f 69/33/2 21/4/2 40/6/2
f 2/13/3 12/7/3 6/9/3
f 3/13/4 32/7/4 7/9/4
f 16/37/5 24/10/5 4/12/5
f 36/8/6 28/7/6 8/9/6
f 4/158/1 28/14/1 16/16/1
f 44/159/1 48/17/1 16/19/1
f 48/160/1 52/20/1 15/22/1
f 52/161/1 56/23/1 14/25/1
f 36/132/2 8/26/2 57/28/2
f 57/28/2 24/27/2 61/30/2
f 61/30/2 23/29/2 65/32/2
f 65/32/2 22/31/2 69/33/2
f 9/73/3 1/34/3 17/36/3
f 10/74/3 9/37/3 18/38/3
f 11/75/3 10/39/3 19/41/3
f 12/76/3 11/42/3 20/44/3
f 13/162/5 3/45/5 21/47/5
f 13/7/5 21/8/5 14/49/5
f 14/42/5 22/43/5 15/51/5
f 15/39/5 23/40/5 16/53/5
f 12/163/1 2/54/1 53/56/1
f 53/164/1 29/57/1 54/59/1
f 54/165/1 30/60/1 55/62/1
f 56/166/1 55/63/1 32/65/1
f 20/143/2 72/66/2 6/68/2
f 72/66/2 71/69/2 37/67/2
f 71/69/2 70/71/2 38/70/2
f 70/71/2 69/33/2 39/72/2
f 29/73/4 2/34/4 37/36/4
f 30/74/4 29/37/4 38/38/4
f 31/75/4 30/39/4 39/41/4
f 32/76/4 31/42/4 40/44/4
f 33/36/6 5/35/6 25/73/6
f 34/38/6 33/10/6 26/74/6
f 35/41/6 34/40/6 27/75/6
f 35/43/6 27/42/6 36/44/6
f 1/167/1 9/77/1 25/79/1
f 25/168/1 41/80/1 26/82/1
f 26/169/1 42/83/1 27/85/1
f 27/170/1 43/86/1 28/88/1
f 9/171/1 10/89/1 41/91/1
f 41/172/1 45/92/1 42/94/1
f 42/173/1 46/95/1 43/97/1
f 43/174/1 47/98/1 44/100/1
f 10/175/1 11/101/1 45/103/1
f 45/176/1 49/104/1 46/106/1
f 47/177/1 46/107/1 51/109/1
f 48/178/1 47/110/1 52/112/1
f 11/179/1 12/113/1 49/115/1
f 49/146/1 53/116/1 50/118/1
f 50/180/1 54/119/1 51/121/1
f 51/181/1 55/122/1 52/124/1
f 17/133/2 5/125/2 60/127/2
f 33/126/2 34/128/2 60/127/2
f 34/128/2 35/130/2 59/129/2
f 35/130/2 36/132/2 58/131/2
f 18/139/2 17/133/2 64/134/2
f 64/134/2 60/127/2 63/135/2
f 59/129/2 58/131/2 63/135/2
f 57/10/5 61/38/5 77/138/5
f 19/182/2 18/139/2 68/140/2
f 64/134/2 63/135/2 68/140/2
f 63/135/2 62/136/2 67/141/2
f 62/136/2 61/30/2 66/142/2
f 19/182/2 68/140/2 20/143/2
f 67/43/5 71/44/5 73/145/5
f 67/141/2 66/142/2 71/69/2
f 70/71/2 66/142/2 69/33/2
f 76/116/2 74/146/2 75/117/2
f 72/8/3 68/48/3 76/148/3
f 71/40/4 72/52/4 75/150/4
f 68/10/6 67/38/6 74/152/6
f 78/174/2 77/100/2 80/98/2
f 61/8/4 62/48/4 79/154/4
f 58/43/6 57/44/6 78/156/6
usemtl Material.001
f 58/52/3 78/183/3 80/184/3
f 62/40/3 58/52/3 80/184/3
